<svg id="_030-3" data-name="030-3" xmlns="http://www.w3.org/2000/svg" width="81" height="81" viewBox="0 0 81 81">
  <g id="Group_249" data-name="Group 249">
    <g id="Group_248" data-name="Group 248">
      <circle id="Ellipse_16" data-name="Ellipse 16" cx="40.5" cy="40.5" r="40.5" fill="#07e5ca"/>
    </g>
  </g>
  <path id="Path_180" data-name="Path 180" d="M180.125,176.1l-5.292-4.694-5.763,7.97,21.971,21.969a40.576,40.576,0,0,0,27.908-28.568l-27.931-27.93-25.558,7.035,11.221,11.2-.573,2.553,8.814,8.524s-3.028,2.272-4.8,1.945Z" transform="translate(-139.284 -121.928)" fill="#00b59b"/>
  <path id="Path_181" data-name="Path 181" d="M191.017,120.807c-2.538-2.829-6.777-4.517-11.34-4.517a15.17,15.17,0,0,0-2.756.252l-.279.051a14.182,14.182,0,0,0-7.273,3.69,12.857,12.857,0,0,0-3.753,6.77l-.158.789,9.373.709.191-.493a4.528,4.528,0,0,1,3.418-2.744l.279-.051a5.131,5.131,0,0,1,4.739,1.558,4.3,4.3,0,0,1-.334,5.988c-.83.746-4.915,1.607-6.274,1.55l-.742-.032v7.264l.742-.032c1.368-.057,5.445.8,6.275,1.55a4.3,4.3,0,0,1,.334,5.988,5.131,5.131,0,0,1-4.739,1.557l-.278-.051a4.528,4.528,0,0,1-3.418-2.744l-.191-.493-9.373.709.158.789a12.855,12.855,0,0,0,3.753,6.77,14.18,14.18,0,0,0,7.273,3.69l.278.051a15.176,15.176,0,0,0,2.757.252c4.562,0,8.8-1.689,11.339-4.517a12.9,12.9,0,0,0-.365-17.153A12.9,12.9,0,0,0,191.017,120.807Z" transform="translate(-139.283 -97.893)" fill="#f8fffb"/>
  <path id="Path_182" data-name="Path 182" d="M266.869,137.967a12.9,12.9,0,0,1,.365,17.154c-2.519,2.8-6.711,4.49-11.234,4.515V150.75a5.064,5.064,0,0,0,3.675-1.644,4.3,4.3,0,0,0-.334-5.988A9.7,9.7,0,0,0,256,141.951v-7.967a9.7,9.7,0,0,0,3.341-1.166,4.3,4.3,0,0,0,.334-5.988A5.064,5.064,0,0,0,256,125.186V116.3c4.523.025,8.715,1.709,11.234,4.515A12.894,12.894,0,0,1,266.869,137.967Z" transform="translate(-215.5 -97.901)" fill="#d8d8d8"/>
</svg>
